PathFileType	4	(X/Y/Z)	C:/Users/opensim2020/Desktop/walking_exp_matlab/subject06_walking13_straight_03_cyclic.trc																																																																																																																																																				
DataRate	CameraRate	NumFrames	NumMarkers	Units	OrigDataRate	OrigDataStartFrame	OrigNumFrames																																																																																																																																																
100	100	7	50	mm	100	2277	111																																																																																																																																																
Frame#	Time	LFHD			RFHD			LBHD			RBHD			C7			T10			CLAV			STRN			RBAK			LSHO			LUPA			LELB			LFRM			LWRA			LWRB			LFIN			RSHO			RUPA			RELB			RFRM			RWRA			RWRB			RFIN			LASI			RASI			LPSI			RPSI			LTHI			LKNE			LTIB			LANK			LHEE			LTOE			RTHI			RKNE			RTIB			RANK			RHEE			RTOE			*39			*40			*41			*42			*43			*44			*45			*46			*47			*48			*49		
		X1	Y1	Z1	X2	Y2	Z2	X3	Y3	Z3	X4	Y4	Z4	X5	Y5	Z5	X6	Y6	Z6	X7	Y7	Z7	X8	Y8	Z8	X9	Y9	Z9	X10	Y10	Z10	X11	Y11	Z11	X12	Y12	Z12	X13	Y13	Z13	X14	Y14	Z14	X15	Y15	Z15	X16	Y16	Z16	X17	Y17	Z17	X18	Y18	Z18	X19	Y19	Z19	X20	Y20	Z20	X21	Y21	Z21	X22	Y22	Z22	X23	Y23	Z23	X24	Y24	Z24	X25	Y25	Z25	X26	Y26	Z26	X27	Y27	Z27	X28	Y28	Z28	X29	Y29	Z29	X30	Y30	Z30	X31	Y31	Z31	X32	Y32	Z32	X33	Y33	Z33	X34	Y34	Z34	X35	Y35	Z35	X36	Y36	Z36	X37	Y37	Z37	X38	Y38	Z38	X39	Y39	Z39	X40	Y40	Z40	X41	Y41	Z41	X42	Y42	Z42	X43	Y43	Z43	X44	Y44	Z44	X45	Y45	Z45	X46	Y46	Z46	X47	Y47	Z47	X48	Y48	Z48	X49	Y49	Z49	X50	Y50	Z50
																																																																																																																																																							
70	0.69	229.28381	1657.61572	-1075.79614	214.82541	1648.22266	-944.80951	93.92531	1613.65198	-1090.61743	81.18241	1608.52136	-962.05273	79.66268	1450.77612	-1035.13159	45.14562	1120.09692	-1025.69287	188.82115	1373.18896	-1022.55548	232.36502	1200.53552	-1025.67969	-2.58602	1277.40881	-963.53125	152.17245	1405.7085	-1189.82544	140.32721	1204.34265	-1264.89404	123.55723	1092.95093	-1279.60693	141.59076	944.31989	-1305.54114	198.38203	826.90674	-1265.25818	138.10849	825.26135	-1304.85901	174.64824	741.72333	-1304.75269	124.06844	1402.47278	-867.78784	103.45129	1201.40466	-782.38177	137.07314	1083.75342	-763.94952	181.12695	972.41418	-743.36749	277.46747	855.51245	-768.75592	223.27669	841.99567	-731.7821	280.60007	781.36041	-724.31799	232.97141	971.43274	-1127.67395	218.84785	964.22015	-909.10553	73.34885	991.61102	-1111.15039	68.70229	981.63177	-943.98346	186.84645	654.38342	-1196.59583	195.56813	490.68002	-1172.96289	167.99251	234.2094	-1156.75488	171.00124	63.2672	-1107.75635	130.81331	49.66658	-1061.22644	316.11249	36.70643	-1100.97144	209.31804	628.12653	-847.758	247.27664	506.40778	-855.16931	64.73177	337.71335	-873.15204	-81.91933	231.50546	-925.75488	-117.69438	247.42986	-975.90509	-33.34134	82.67834	-917.46698	126.76775	1704.29736	-1027.85791	NaN	NaN	NaN	NaN	NaN	NaN	NaN	NaN	NaN	NaN	NaN	NaN	NaN	NaN	NaN	NaN	NaN	NaN	NaN	NaN	NaN	NaN	NaN	NaN	NaN	NaN	NaN	NaN	NaN	NaN
71	0.7	239.79935	1658.19922	-1075.62622	225.1008	1648.5155	-944.69952	104.25815	1614.68433	-1090.75208	91.42789	1609.20996	-962.15796	89.60378	1451.5155	-1035.67432	55.33717	1120.80566	-1026.38257	198.75143	1373.84631	-1023.01208	242.27548	1201.20264	-1026.33289	7.49964	1277.97461	-964.3562	162.18279	1406.32043	-1190.30396	154.57069	1204.6438	-1265.74377	140.80632	1092.97656	-1281.3219	162.88272	945.02795	-1307.18921	220.76822	828.47968	-1266.91699	161.94986	825.88013	-1307.26892	201.43542	744.00806	-1308.19702	133.92894	1403.09448	-868.28662	111.1273	1201.88245	-783.72314	143.23038	1083.71167	-765.6817	184.70618	971.25702	-745.20886	278.00427	851.76593	-770.30817	223.24869	839.70032	-733.44885	278.79715	777.47833	-725.9201	242.76991	971.61011	-1128.64758	229.41335	965.40509	-909.84613	83.33444	992.16315	-1111.36938	78.78132	982.7312	-944.01392	194.0067	654.39746	-1196.43481	199.92152	490.54324	-1172.85364	170.24121	234.40233	-1156.34485	171.31482	63.36605	-1107.42029	130.63789	49.98711	-1061.27197	316.27985	36.64075	-1101.00452	225.28145	630.48932	-848.18707	266.03452	509.87222	-856.04919	86.24378	338.49899	-873.29645	-58.51246	228.63159	-925.92346	-95.33128	243.40712	-975.74652	-4.49198	82.36579	-917.55957	137.28004	1705.07776	-1027.68579	NaN	NaN	NaN	NaN	NaN	NaN	NaN	NaN	NaN	NaN	NaN	NaN	NaN	NaN	NaN	NaN	NaN	NaN	NaN	NaN	NaN	NaN	NaN	NaN	NaN	NaN	NaN	NaN	NaN	NaN
72	0.71	250.34273	1658.7749	-1075.43665	235.31525	1648.78967	-944.48895	114.65273	1615.64441	-1090.87354	101.65096	1609.78076	-962.38568	99.65128	1452.0918	-1036.20862	65.49059	1121.50452	-1027.00037	208.7079	1374.43677	-1023.53064	252.13986	1201.724	-1026.99939	17.5382	1278.61108	-964.90503	172.13391	1406.91443	-1190.75928	168.60106	1205.10229	-1266.51782	157.87589	1093.33301	-1282.52173	183.8421	946.11084	-1308.90515	244.3826	830.91315	-1268.85193	185.9413	826.92133	-1309.4917	228.35408	746.73029	-1311.46289	143.80933	1403.72827	-868.81488	119.25497	1202.36804	-784.46063	149.13045	1083.67188	-767.29095	187.98033	970.20905	-746.95807	278.17319	848.09686	-771.9173	223.07544	837.44489	-735.37213	276.70026	773.74207	-727.57452	252.59961	971.73474	-1129.60254	239.91159	966.54181	-910.69135	93.18504	992.63293	-1111.58069	89.63521	983.6153	-944.28821	201.28772	654.17694	-1196.15271	204.79839	490.35779	-1172.60059	172.20511	234.61189	-1155.71667	171.54556	63.57016	-1107.00085	130.8261	50.19639	-1060.89001	316.45499	36.58475	-1100.98181	241.11642	632.888	-848.74945	284.34244	513.26874	-857.10632	108.24101	337.73648	-873.77386	-34.62386	224.71796	-925.99982	-72.64785	238.02269	-975.64703	25.62133	81.45649	-917.71667	147.83098	1705.72839	-1027.47009	NaN	NaN	NaN	NaN	NaN	NaN	NaN	NaN	NaN	NaN	NaN	NaN	NaN	NaN	NaN	NaN	NaN	NaN	NaN	NaN	NaN	NaN	NaN	NaN	NaN	NaN	NaN	NaN	NaN	NaN
73	0.72	260.82162	1659.28662	-1075.17773	245.69398	1648.86816	-944.28217	125.12064	1616.5448	-1090.9635	111.81388	1610.25427	-962.51123	109.74965	1452.52515	-1036.69568	75.68778	1122.01135	-1027.56519	218.70013	1374.9325	-1024.09009	262.02951	1202.16846	-1027.70007	27.65199	1279.12781	-965.38177	181.94138	1407.5282	-1191.1438	182.49397	1205.67407	-1267.30237	174.72163	1093.83264	-1283.8197	204.70303	947.42438	-1310.52222	267.99329	833.88324	-1270.87	210.03769	828.36017	-1311.52112	255.19167	749.96344	-1314.56592	153.7323	1404.22156	-869.26361	126.9565	1202.85486	-785.41058	154.88165	1083.59766	-768.85522	191.04926	969.15729	-748.65405	278.01852	844.49591	-773.57025	222.73621	835.50165	-736.98523	274.67307	770.27655	-729.24097	262.46381	971.81512	-1130.7179	250.35693	967.43207	-911.24298	103.15898	992.94757	-1111.85229	100.05242	984.59784	-944.40491	207.96614	653.87665	-1195.99988	209.23738	489.9938	-1172.05261	173.87051	234.81395	-1154.89111	171.74794	63.71494	-1106.46606	130.86177	50.4117	-1060.45142	316.63132	36.54736	-1100.99719	256.8143	635.17383	-849.25299	302.16516	516.50226	-858.31696	130.17712	336.29678	-874.29138	-10.15891	219.62126	-926.0119	-49.2894	231.17598	-975.3938	56.41097	79.75882	-918.11047	158.3475	1706.28418	-1027.17517	NaN	NaN	NaN	NaN	NaN	NaN	NaN	NaN	NaN	NaN	NaN	NaN	NaN	NaN	NaN	NaN	NaN	NaN	NaN	NaN	NaN	NaN	NaN	NaN	NaN	NaN	NaN	NaN	NaN	NaN
74	0.73	271.29041	1659.71545	-1074.7439	255.87155	1648.86157	-944.03107	135.52742	1617.30164	-1091.0603	121.94917	1610.64502	-962.60846	119.70985	1452.85791	-1037.14124	85.84486	1122.41235	-1028.17908	228.75488	1375.32446	-1024.60132	272.04477	1202.49829	-1028.40991	37.75489	1279.59607	-965.83954	191.86618	1408.09265	-1191.48315	196.11839	1206.37634	-1267.95532	191.28577	1094.43005	-1284.9165	225.36298	949.02216	-1311.9718	291.67975	837.00049	-1272.42688	234.31625	830.13458	-1313.24731	282.08643	753.83899	-1317.58582	163.73326	1404.5719	-869.7644	134.90465	1203.23975	-786.20734	160.34894	1083.48694	-770.07947	193.99414	968.11682	-750.18549	278.02817	841.1601	-774.95374	222.24669	833.76263	-738.33618	272.2493	766.74078	-730.90979	272.06616	971.7088	-1131.44275	260.69333	968.23468	-911.90021	112.97202	993.20813	-1112.09583	110.45287	985.50037	-944.57202	214.73361	653.89185	-1195.7041	213.84425	489.71298	-1171.60852	175.68112	234.99915	-1154.18909	171.96971	63.85998	-1105.91821	130.95294	50.54723	-1059.88086	316.77966	36.44626	-1100.93481	272.1351	637.38184	-849.76904	319.51419	519.52289	-859.68408	151.93512	334.42572	-874.5802	15.07696	213.28326	-925.85498	-25.40556	223.00507	-975.1424	88.29991	77.36732	-918.29053	168.85913	1706.8291	-1026.90063	NaN	NaN	NaN	NaN	NaN	NaN	NaN	NaN	NaN	NaN	NaN	NaN	NaN	NaN	NaN	NaN	NaN	NaN	NaN	NaN	NaN	NaN	NaN	NaN	NaN	NaN	NaN	NaN	NaN	NaN
75	0.74	281.82874	1659.98108	-1074.47021	266.09613	1648.76294	-943.72382	146.00671	1617.95117	-1091.13354	132.09785	1610.9032	-962.74646	129.83742	1453.19568	-1037.5144	96.00124	1122.75842	-1028.8269	238.72606	1375.61609	-1025.03809	281.96494	1202.72729	-1029.09338	47.79688	1280.05652	-966.20856	201.73405	1408.69312	-1191.84058	209.58492	1207.12402	-1268.58472	207.65376	1095.1416	-1285.87915	245.81639	950.85974	-1313.31201	315.37958	840.70551	-1274.05872	258.21277	832.38135	-1314.92078	308.68353	757.8407	-1319.93005	173.84427	1404.78711	-870.14441	142.7674	1203.53149	-786.97198	166.29744	1083.24304	-771.56134	196.96385	967.0567	-751.62598	278.04465	837.93182	-776.22498	221.91762	831.87939	-739.98517	269.91412	763.40588	-732.60315	281.75677	971.54907	-1132.30713	271.07019	968.90417	-912.59967	122.78893	993.33124	-1112.34924	120.86121	986.31635	-944.68408	221.74458	653.63965	-1195.21094	218.78719	489.40515	-1171.08118	177.63667	235.1723	-1153.43176	171.97556	64.06984	-1105.52417	130.85767	50.67641	-1059.38196	316.96054	36.3712	-1100.89111	287.22351	639.32397	-850.33777	336.38461	522.34985	-861.21875	174.17836	331.56628	-875.65808	40.86016	206.22188	-925.83783	-0.60115	213.59055	-974.91528	121.89057	75.35575	-918.45917	179.29013	1707.14502	-1026.58167	NaN	NaN	NaN	NaN	NaN	NaN	NaN	NaN	NaN	NaN	NaN	NaN	NaN	NaN	NaN	NaN	NaN	NaN	NaN	NaN	NaN	NaN	NaN	NaN	NaN	NaN	NaN	NaN	NaN	NaN
76	0.75	292.31265	1660.27234	-1074.09631	276.37051	1648.61987	-943.4306	156.47054	1618.42554	-1091.19629	142.325	1610.99731	-962.84784	139.95685	1453.41162	-1037.80774	106.09058	1122.97595	-1029.59814	248.81645	1375.77991	-1025.38	291.89343	1202.83337	-1029.74426	57.88293	1280.34546	-966.64478	211.6208	1409.15149	-1192.09265	222.7838	1207.90991	-1269.15808	223.74236	1095.92761	-1286.75305	266.00226	952.86871	-1314.49988	339.09769	844.90759	-1275.57666	282.02481	834.82196	-1316.24146	335.13864	762.42865	-1322.23193	183.94371	1404.85522	-870.44757	150.91385	1203.6532	-787.50354	172.09262	1082.9259	-772.77832	199.98674	966.02753	-752.89435	278.03497	834.78809	-777.34058	221.5648	830.24829	-741.24121	267.59183	760.17749	-734.16052	291.89194	971.35541	-1133.42969	281.52057	969.42548	-913.31726	132.51039	993.32458	-1112.5376	131.22739	987.06531	-944.7583	228.53993	653.1684	-1195.02441	224.09981	489.05438	-1170.55029	180.06665	235.33022	-1152.85547	172.33258	64.19231	-1104.83533	131.27849	51.07378	-1058.90063	317.18048	36.24176	-1100.87439	301.63138	641.14789	-850.93683	352.75427	524.97919	-862.88074	196.10945	328.37198	-876.55975	67.31055	198.04802	-925.92242	24.95886	203.14595	-974.74664	155.5215	72.3568	-918.6748	189.77362	1707.32056	-1026.29468	NaN	NaN	NaN	NaN	NaN	NaN	NaN	NaN	NaN	NaN	NaN	NaN	NaN	NaN	NaN	NaN	NaN	NaN	NaN	NaN	NaN	NaN	NaN	NaN	NaN	NaN	NaN	NaN	NaN	NaN
